<svg width="25" height="30" viewBox="0 0 25 30" fill="none" xmlns="http://www.w3.org/2000/svg"><g fill="#fff"><circle cx="17.7" cy="9.33" r="1.09"/><circle cx="6.83" cy="9.33" r="1.09"/><circle cx="6.83" cy="22.35" r="1.09"/><circle cx="12.27" cy="24.52" r="1.09"/><circle cx="3.57" cy="15.77" r="1.09"/><circle cx="20.97" cy="15.77" r="1.09"/><circle cx="17.7" cy="22.35" r="1.09"/><mask id="a"><path fill-rule="evenodd" clip-rule="evenodd" d="M17.42 27.06c.41-.2.9-.13 1.22.2l1.82 1.87a.68.68 0 0 0 .98-.95l-1.36-1.4c-.42-.43-.36-1.14.1-1.55a12.75 12.75 0 0 0 4.32-9.62C24.5 8.65 19.02 3 12.27 3 5.5 3 .04 8.65.04 15.61c0 3.82 1.64 7.24 4.23 9.55.45.4.51 1.11.1 1.55l-1.44 1.47a.68.68 0 1 0 .97.95l1.88-1.93c.32-.33.82-.4 1.23-.2a11.88 11.88 0 0 0 10.41.06Zm-5.15-.23c6 0 10.87-5.02 10.87-11.22 0-6.19-4.87-11.2-10.87-11.2-6 0-10.88 5.01-10.88 11.2 0 6.2 4.87 11.22 10.88 11.22ZM11.5 15.3V7.94a.78.78 0 1 1 1.56 0v8.18a.8.8 0 0 1-.8.8.76.76 0 0 1-.76-.75V15.3Z"/></mask><path fill-rule="evenodd" clip-rule="evenodd" d="M17.42 27.06c.41-.2.9-.13 1.22.2l1.82 1.87a.68.68 0 0 0 .98-.95l-1.36-1.4c-.42-.43-.36-1.14.1-1.55a12.75 12.75 0 0 0 4.32-9.62C24.5 8.65 19.02 3 12.27 3 5.5 3 .04 8.65.04 15.61c0 3.82 1.64 7.24 4.23 9.55.45.4.51 1.11.1 1.55l-1.44 1.47a.68.68 0 1 0 .97.95l1.88-1.93c.32-.33.82-.4 1.23-.2a11.88 11.88 0 0 0 10.41.06Zm-5.15-.23c6 0 10.87-5.02 10.87-11.22 0-6.19-4.87-11.2-10.87-11.2-6 0-10.88 5.01-10.88 11.2 0 6.2 4.87 11.22 10.88 11.22ZM11.5 15.3V7.94a.78.78 0 1 1 1.56 0v8.18a.8.8 0 0 1-.8.8.76.76 0 0 1-.76-.75V15.3Z"/><path d="M11.5 4V0H13v4z"/><rect x="4.5" width="15.5" height="1.5" rx=".75"/></g></svg>